<svg width="16" height="20" viewBox="0 0 16 20" fill="none" xmlns="http://www.w3.org/2000/svg">
<g clip-path="url(#clip0_69_8752)">
<path fill-rule="evenodd" clip-rule="evenodd" d="M1 6H9C9.55229 6 10 6.44772 10 7V8H12.7403L15 10.8246V15H12.8316C12.5507 15.5912 11.9481 16 11.25 16C10.5519 16 9.94927 15.5912 9.66841 15H6.33159C6.05073 15.5912 5.4481 16 4.75 16C4.0519 16 3.44927 15.5912 3.16841 15H3C1.89543 15 1 14.1046 1 13V6ZM9.51772 14C9.63903 13.1519 10.3684 12.5 11.25 12.5C12.1316 12.5 12.861 13.1519 12.9823 14H14V11.1754L12.2597 9H10V12H9V7H2V13C2 13.5523 2.44772 14 3 14H3.01772C3.13903 13.1519 3.86838 12.5 4.75 12.5C5.63162 12.5 6.36097 13.1519 6.48228 14H9.51772ZM4.75 13.5C5.16421 13.5 5.5 13.8358 5.5 14.25C5.5 14.6642 5.16421 15 4.75 15C4.33579 15 4 14.6642 4 14.25C4 13.8358 4.33579 13.5 4.75 13.5ZM12 14.25C12 14.6642 11.6642 15 11.25 15C10.8358 15 10.5 14.6642 10.5 14.25C10.5 13.8358 10.8358 13.5 11.25 13.5C11.6642 13.5 12 13.8358 12 14.25Z" fill="black"/>
</g>
<defs>
<clipPath id="clip0_69_8752">
<rect width="16" height="16" fill="white" transform="translate(0 2)"/>
</clipPath>
</defs>
</svg>
