<svg width="14" height="20" viewBox="0 0 14 20" fill="none" xmlns="http://www.w3.org/2000/svg">
<path fill-rule="evenodd" clip-rule="evenodd" d="M10.6 10.1001C10.6 12.3645 8.76437 14.2001 6.5 14.2001C4.23563 14.2001 2.4 12.3645 2.4 10.1001C2.4 7.83573 4.23563 6.0001 6.5 6.0001C8.76437 6.0001 10.6 7.83573 10.6 10.1001ZM9.86267 14.4527C8.93295 15.172 7.76646 15.6001 6.5 15.6001C3.46243 15.6001 1 13.1377 1 10.1001C1 7.06253 3.46243 4.6001 6.5 4.6001C9.53757 4.6001 12 7.06253 12 10.1001C12 11.3666 11.5719 12.533 10.8526 13.4628L13.495 16.1051L12.505 17.0951L9.86267 14.4527Z" fill="#757575"/>
</svg>
