<svg width="30" height="30" viewBox="0 0 30 30" fill="none" xmlns="http://www.w3.org/2000/svg">
<path d="M14.3857 3.97729C14.7469 3.69643 15.2531 3.69643 15.6143 3.97729L23.5371 10.1394C23.8293 10.3667 24 10.7165 24 11.0867V22.9998C24 23.552 23.5523 23.9998 23 23.9998H19C18.4477 23.9998 18 23.552 18 22.9998V16.9998C17.9999 16.4475 17.5522 15.9998 17 15.9998H13C12.4478 15.9998 12.0001 16.4475 12 16.9998V22.9998C12 23.552 11.5523 23.9998 11 23.9998H7C6.44772 23.9998 6 23.552 6 22.9998V11.0867C6.00004 10.7165 6.17071 10.3667 6.46289 10.1394L14.3857 3.97729Z" fill="#CCCCCC"/>
</svg>
