<svg width="30" height="30" viewBox="0 0 30 30" fill="none" xmlns="http://www.w3.org/2000/svg">
<path d="M4.16663 12.1833C4.16663 9.75644 4.16663 8.54299 4.63893 7.61604C5.05438 6.80067 5.7173 6.13776 6.53267 5.72231C7.45962 5.25 8.67307 5.25 11.1 5.25L23.0166 5.25C23.6234 5.25 23.9267 5.25 24.1585 5.36808C24.3623 5.47194 24.528 5.63767 24.6319 5.84151C24.75 6.07325 24.75 6.37661 24.75 6.98333V7.41667H9.58329C8.98498 7.41667 8.49996 7.90169 8.49996 8.5C8.49996 9.09831 8.98498 9.58333 9.58329 9.58333H24.75V23.0167C24.75 23.6234 24.75 23.9268 24.6319 24.1585C24.528 24.3623 24.3623 24.5281 24.1585 24.6319C23.9267 24.75 23.6234 24.75 23.0166 24.75H11.1C8.67307 24.75 7.45962 24.75 6.53267 24.2777C5.7173 23.8622 5.05438 23.1993 4.63893 22.384C4.16663 21.457 4.16663 20.2436 4.16663 17.8167V12.1833ZM20.4166 18.7917C21.3141 18.7917 22.0416 18.0641 22.0416 17.1667C22.0416 16.2692 21.3141 15.5417 20.4166 15.5417C19.5192 15.5417 18.7916 16.2692 18.7916 17.1667C18.7916 18.0641 19.5192 18.7917 20.4166 18.7917Z" fill="#CCCCCC"/>
</svg>
